<svg width="25" height="25" viewBox="0 0 25 25" fill="none" xmlns="http://www.w3.org/2000/svg">
<path d="M23.468 11.6519C23.9144 11.6519 24.2775 12.0169 24.2776 12.4673C24.2776 12.9168 23.9144 13.2808 23.468 13.2808H22.3391V17.1656C22.3389 19.5175 20.4398 21.4283 18.1057 21.4283H16.4124C15.965 21.4281 15.6028 21.0633 15.6028 20.6129C15.6029 20.1636 15.9651 19.7985 16.4124 19.7984H18.1057C19.548 19.7984 20.7218 18.6186 20.7219 17.1656V13.2808H17.9338V14.3629C17.9444 15.7165 16.8653 16.8227 15.5208 16.8355H9.64966C8.30618 16.8227 7.22701 15.7165 7.23755 14.3629V13.2808H4.44946V17.1695C4.44946 18.6173 5.61972 19.7953 7.05786 19.7974L8.78833 19.7984C9.23463 19.7984 9.59677 20.1636 9.59692 20.6129C9.59586 21.0633 9.23477 21.4282 8.78735 21.4283L7.05591 21.4273C4.72704 21.4252 2.83032 19.5152 2.83032 17.1695V13.2808H1.70239C1.25615 13.2806 0.892822 12.9167 0.892822 12.4673C0.892924 12.0171 1.25621 11.6521 1.70239 11.6519H23.468ZM15.5208 5.86969C16.1638 5.86969 16.7821 6.12997 17.2317 6.59332C17.6844 7.06095 17.9349 7.68953 17.9338 8.34332V9.70172C17.9285 9.86117 17.8022 9.99139 17.6438 9.99567H7.52466C7.36742 9.99023 7.24074 9.86004 7.23755 9.70172V8.34332C7.22586 6.98965 8.30612 5.8836 9.64966 5.86969H15.5208ZM8.78735 1.78571C9.23378 1.78571 9.59692 2.15062 9.59692 2.60114C9.59692 3.05057 9.23484 3.41559 8.78735 3.41559L7.05591 3.41656C5.61905 3.41888 4.44958 4.59686 4.44946 6.04449V8.07379C4.44937 8.52315 4.08626 8.88922 3.63989 8.88922C3.19357 8.88917 2.83139 8.52312 2.8313 8.07379V6.04449C2.83141 3.69901 4.72624 1.78895 7.05493 1.78668L8.78638 1.78571H8.78735ZM18.1047 1.78571C20.44 1.78571 22.3391 3.69739 22.3391 6.0484V8.07379C22.3391 8.52323 21.977 8.88922 21.5295 8.88922C21.0833 8.88899 20.7209 8.52309 20.7209 8.07379V6.0484C20.7209 4.59627 19.5471 3.41461 18.1047 3.41461H16.4124C15.9659 3.41461 15.6028 3.05058 15.6028 2.60114C15.6029 2.15075 15.966 1.78571 16.4124 1.78571H18.1047Z" fill="white"/>
</svg>
