<svg width="25" height="25" viewBox="0 0 25 25" fill="none" xmlns="http://www.w3.org/2000/svg">
<path d="M21.0126 4.19998C20.9584 4.20414 15.4209 4.67914 12.7876 2.19998C12.6293 2.04581 12.3793 2.04581 12.2168 2.19998C9.58343 4.67914 4.0501 4.20414 3.99176 4.19998C3.8751 4.18748 3.7626 4.22914 3.6751 4.30831C3.5876 4.38748 3.5376 4.49581 3.5376 4.61248V8.47498C3.5376 21.3791 12.3501 22.9 12.4376 22.9125C12.4584 22.9166 12.4834 22.9166 12.5043 22.9166C12.5251 22.9166 12.5459 22.9166 12.5668 22.9125C12.6543 22.9 21.4668 21.3791 21.4668 8.47498V4.61248C21.4668 4.49581 21.4168 4.38748 21.3334 4.30831C21.2459 4.22914 21.1293 4.18748 21.0126 4.19998V4.19998ZM16.9543 13.5583C16.9543 13.7875 16.7668 13.975 16.5376 13.975H13.9709V16.5416C13.9709 16.7708 13.7834 16.9583 13.5543 16.9583H11.4459C11.2168 16.9583 11.0293 16.7708 11.0293 16.5416V13.975H8.4626C8.23343 13.975 8.04593 13.7875 8.04593 13.5583V11.45C8.04593 11.2208 8.23343 11.0333 8.4626 11.0333H11.0293V8.46664C11.0293 8.23748 11.2168 8.04998 11.4459 8.04998H13.5543C13.7834 8.04998 13.9709 8.23748 13.9709 8.46664V11.0333H16.5376C16.7668 11.0333 16.9543 11.2208 16.9543 11.45V13.5583Z" fill="#BDBDBD"/>
</svg>
