<svg width="52" height="45" viewBox="0 0 52 45" fill="none" xmlns="http://www.w3.org/2000/svg">
<g filter="url(#filter0_d_15_4999)">
<path d="M28.6743 23.3548C27.8782 23.8855 26.9534 24.1661 26 24.1661C25.0466 24.1661 24.1219 23.8855 23.3258 23.3548L10.2131 14.6127C10.1403 14.5642 10.0694 14.5137 10 14.4617V28.7865C10 30.4288 11.3328 31.7323 12.9458 31.7323H39.0541C40.6965 31.7323 41.9999 30.3995 41.9999 28.7865V14.4616C41.9304 14.5137 41.8594 14.5644 41.7864 14.613L28.6743 23.3548Z" fill="url(#paint0_linear_15_4999)"/>
<path d="M11.2531 13.0526L24.3658 21.7947C24.8622 22.1257 25.4311 22.2911 25.9999 22.2911C26.5689 22.2911 27.1378 22.1256 27.6342 21.7947L40.7469 13.0526C41.5316 12.5298 42 11.6548 42 10.7104C42 9.08659 40.6789 7.76559 39.0552 7.76559H12.9448C11.3211 7.76566 10 9.08666 10 10.712C10 11.6548 10.4685 12.5298 11.2531 13.0526V13.0526Z" fill="url(#paint1_linear_15_4999)"/>
</g>
<defs>
<filter id="filter0_d_15_4999" x="0" y="0.765594" width="52" height="43.9667" filterUnits="userSpaceOnUse" color-interpolation-filters="sRGB">
<feFlood flood-opacity="0" result="BackgroundImageFix"/>
<feColorMatrix in="SourceAlpha" type="matrix" values="0 0 0 0 0 0 0 0 0 0 0 0 0 0 0 0 0 0 127 0" result="hardAlpha"/>
<feOffset dy="3"/>
<feGaussianBlur stdDeviation="5"/>
<feComposite in2="hardAlpha" operator="out"/>
<feColorMatrix type="matrix" values="0 0 0 0 0 0 0 0 0 0 0 0 0 0 0 0 0 0 0.16 0"/>
<feBlend mode="normal" in2="BackgroundImageFix" result="effect1_dropShadow_15_4999"/>
<feBlend mode="normal" in="SourceGraphic" in2="effect1_dropShadow_15_4999" result="shape"/>
</filter>
<linearGradient id="paint0_linear_15_4999" x1="26" y1="14.4616" x2="41.8085" y2="37.5515" gradientUnits="userSpaceOnUse">
<stop stop-color="#F0D399"/>
<stop offset="1" stop-color="#D9A846"/>
</linearGradient>
<linearGradient id="paint1_linear_15_4999" x1="26" y1="7.7656" x2="38.3343" y2="29.1859" gradientUnits="userSpaceOnUse">
<stop stop-color="#F0D399"/>
<stop offset="1" stop-color="#D9A846"/>
</linearGradient>
</defs>
</svg>
