<svg width="25" height="25" viewBox="0 0 25 25" fill="none" xmlns="http://www.w3.org/2000/svg">
<g clip-path="url(#clip0_15_5301)">
<g clip-path="url(#clip1_15_5301)">
<path d="M13.5209 1.59392C13.8281 1.16383 14.4483 1.13727 14.7943 1.51384L14.8598 1.59489L20.5854 9.62224C23.1469 13.212 22.2305 18.1822 18.6039 20.6447L18.4076 20.7736L18.2065 20.8976C17.2134 21.4874 16.1216 21.8408 15.0111 21.9572V24.1799C15.0111 24.6326 14.6436 25.0002 14.1899 25.0002C13.7686 25.0001 13.4219 24.6833 13.3744 24.2756L13.3686 24.1799L13.3676 21.9572C12.2572 21.8408 11.1663 21.4873 10.1733 20.8976C6.29828 18.5948 5.17094 13.5309 7.65958 9.81657L7.79337 9.62224L13.5209 1.59392ZM23.0522 18.3273C23.1434 17.8839 23.5775 17.5977 24.0219 17.6886C24.4662 17.7796 24.7524 18.213 24.6615 18.6564C24.4713 19.5819 24.0353 20.3784 23.432 21.0461C22.9393 21.5913 22.443 21.9484 22.0844 22.1379C21.6835 22.3495 21.1863 22.1971 20.974 21.797C20.7769 21.4255 20.8949 20.9711 21.2338 20.7384L21.4369 20.6144L21.5697 20.5236C21.7878 20.3664 22.0072 20.1734 22.2113 19.9474C22.6292 19.4849 22.9249 18.9463 23.0522 18.3273ZM14.1899 8.39861C13.7688 8.39868 13.4221 8.71477 13.3744 9.12224L13.3686 9.21794V12.3244L12.1205 11.0519L12.0443 10.9826C11.7248 10.729 11.2588 10.747 10.9594 11.0392C10.66 11.3315 10.6323 11.796 10.8793 12.1203L10.9467 12.1984L13.308 14.6076L13.3686 14.6623V18.4416L13.3744 18.5373C13.422 18.9448 13.7687 19.2608 14.1899 19.2609C14.5788 19.2609 14.9045 18.9913 14.9897 18.6291L15.0063 18.5373L15.0102 18.4562L17.7836 15.4806L17.849 15.4015C18.0877 15.0712 18.0481 14.6071 17.7416 14.3224C17.4349 14.0378 16.9677 14.0315 16.6547 14.2931L16.5805 14.3644L15.0111 16.047V9.21794L15.0063 9.12224C14.9586 8.71468 14.611 8.39861 14.1899 8.39861ZM5.30118 7.09392C5.62871 6.78087 6.14841 6.79174 6.46231 7.11833C6.75205 7.42014 6.76468 7.88614 6.50723 8.20232L6.31583 8.40935L6.18497 8.5656C5.97062 8.83118 5.75422 9.14843 5.55118 9.51482C5.2644 10.0323 5.02977 10.6026 4.86661 11.2238C4.75158 11.6618 4.30256 11.9235 3.86368 11.8088C3.42477 11.694 3.16173 11.2458 3.27677 10.8078C3.47576 10.0502 3.76196 9.35379 4.1127 8.72087C4.54514 7.94055 4.98572 7.3955 5.30118 7.09392Z" fill="#BDBDBD"/>
</g>
</g>
<defs>
<clipPath id="clip0_15_5301">
<rect width="25" height="25" fill="white"/>
</clipPath>
<clipPath id="clip1_15_5301">
<rect width="25" height="25" fill="white" transform="translate(2)"/>
</clipPath>
</defs>
</svg>
