<?xml version="1.0" encoding="UTF-8"?>
<svg width="64" height="64" viewBox="0 0 64 64" fill="none" xmlns="http://www.w3.org/2000/svg">
  <circle cx="32" cy="32" r="32" fill="#28AF6E"/>
  <path d="M42 38C42 38.5304 41.7893 39.0391 41.4142 39.4142C41.0391 39.7893 40.5304 40 40 40H24C23.4696 40 22.9609 39.7893 22.5858 39.4142C22.2107 39.0391 22 38.5304 22 38V28C22 27.4696 22.2107 26.9609 22.5858 26.5858C22.9609 26.2107 23.4696 26 24 26H27L29 24H35L37 26H40C40.5304 26 41.0391 26.2107 41.4142 26.5858C41.7893 26.9609 42 27.4696 42 28V38Z" stroke="white" stroke-width="2" stroke-linecap="round" stroke-linejoin="round"/>
  <path d="M32 36C34.2091 36 36 34.2091 36 32C36 29.7909 34.2091 28 32 28C29.7909 28 28 29.7909 28 32C28 34.2091 29.7909 36 32 36Z" stroke="white" stroke-width="2" stroke-linecap="round" stroke-linejoin="round"/>
</svg>